<?xml version="1.0" standalone="no"?>
<!DOCTYPE svg PUBLIC "-//W3C//DTD SVG 20010904//EN"
 "http://www.w3.org/TR/2001/REC-SVG-20010904/DTD/svg10.dtd">
<svg version="1.0" xmlns="http://www.w3.org/2000/svg"
 width="1024.000000pt" height="1024.000000pt" viewBox="0 0 1024.000000 1024.000000"
 preserveAspectRatio="xMidYMid meet">

<g transform="translate(0.000000,1024.000000) scale(0.100000,-0.100000)"
fill="#000000" stroke="none">
<path d="M0 5120 l0 -5120 5120 0 5120 0 0 5120 0 5120 -5120 0 -5120 0 0
-5120z m7697 3241 c74 -46 155 -272 200 -561 27 -172 24 -552 -5 -710 -53
-292 -133 -472 -266 -606 -125 -125 -278 -181 -471 -171 -78 4 -226 30 -243
42 -1 1 13 38 31 81 30 71 36 79 58 76 174 -20 282 -11 394 34 58 24 136 75
90 59 -57 -20 -207 -37 -281 -32 -78 6 -173 24 -185 36 -4 3 22 74 56 156 58
136 65 150 87 147 137 -16 280 5 386 55 62 29 62 40 1 22 -55 -16 -353 -19
-368 -4 -8 8 8 58 52 167 l62 157 71 0 c82 -1 130 11 194 46 l45 25 -40 -7
c-43 -9 -209 -8 -231 1 -10 4 -5 27 21 107 50 147 97 328 79 305 -8 -11 -14
-24 -14 -28 0 -8 -158 -349 -165 -356 -15 -15 -137 84 -187 152 -37 51 -36 38
4 -38 18 -33 59 -88 91 -120 l58 -59 -20 -46 c-51 -118 -121 -261 -128 -261
-5 0 -31 15 -58 34 -68 46 -168 148 -218 223 -22 34 -42 61 -44 59 -9 -9 73
-159 121 -222 46 -61 136 -146 165 -155 8 -3 -13 -60 -56 -154 -37 -83 -69
-152 -70 -155 -8 -10 -80 39 -145 99 -76 70 -137 146 -187 231 -31 52 -32 53
-27 20 4 -19 29 -81 56 -137 39 -80 66 -118 129 -185 43 -46 91 -90 105 -97
14 -8 26 -18 26 -23 0 -20 -65 -158 -75 -158 -31 0 -150 85 -225 160 -166 166
-229 362 -184 577 48 232 205 486 458 739 197 197 373 326 578 424 151 72 219
85 275 51z m-4241 -1638 c120 -207 220 -380 222 -384 2 -4 -98 -181 -222 -393
l-224 -387 -429 1 c-235 0 -429 4 -431 8 -4 12 -423 736 -432 747 -6 7 80 163
217 398 l225 387 427 0 428 0 219 -377z m2724 56 c102 -177 200 -349 219 -383
l35 -62 -223 -387 -224 -387 -431 0 -432 0 -223 386 c-130 225 -220 391 -217
400 4 11 226 394 433 747 2 4 201 7 441 7 l437 0 185 -321z m-1541 -671 c38
-68 135 -235 215 -373 80 -137 146 -254 146 -260 0 -8 -187 -328 -404 -693
l-26 -42 -397 2 -397 3 -213 365 c-117 201 -213 369 -213 374 0 8 343 605 407
709 l23 37 394 0 395 0 70 -122z m2979 -311 c116 -205 212 -375 212 -378 0 -3
-96 -174 -214 -380 l-214 -374 -439 -3 -438 -2 -213 380 -213 380 217 375 217
375 436 0 436 -1 213 -372z m-4171 -773 l220 -375 -54 -92 c-30 -51 -129 -220
-221 -377 l-168 -285 -342 -5 c-335 -5 -342 -5 -363 -27 -14 -14 -25 -42 -30
-75 -11 -73 -20 -531 -22 -1108 -2 -498 -5 -530 -41 -530 -40 0 -41 10 -47
629 -10 858 -18 986 -76 1165 -60 187 -150 364 -296 585 -62 94 -67 107 -57
129 10 22 382 665 416 720 l14 22 424 0 423 0 220 -376z m2743 -9 l217 -379
-88 -152 c-49 -84 -145 -250 -213 -368 l-124 -216 -428 -1 -429 0 -86 148
c-47 81 -144 250 -216 374 l-130 227 213 368 c118 203 214 372 214 377 0 4
192 6 426 5 l427 -3 217 -380z m-1410 -809 c121 -208 220 -383 220 -389 0 -9
-138 -250 -364 -637 l-62 -105 -408 0 -408 0 -102 175 c-342 586 -328 558
-315 583 13 23 388 669 421 725 l20 32 389 -2 390 -3 219 -379z m2832 -72
l217 -381 -212 -371 -212 -372 -439 3 -438 2 -55 95 c-209 361 -363 633 -363
642 0 5 98 180 218 389 l217 378 425 -2 424 -2 218 -381z"/>
</g>
</svg>